<svg xmlns="http://www.w3.org/2000/svg" width="44" height="65" viewBox="0 0 44 65" fill="none">
    <path d="M22.0011 0C9.90941 0 0 10.2164 0 22.6857C0 27.5171 1.49233 32.0074 4.01775 35.6979L19.316 63.046C21.4583 65.9404 22.8826 65.3905 24.6641 62.893L41.5382 33.1996C41.8783 32.5618 42.1461 31.8828 42.379 31.1892C43.4498 28.4909 44.0004 25.6023 44 22.6857C44.0007 10.2164 34.0943 0 22.0011 0ZM22.0011 10.6294C28.5132 10.6294 33.6913 15.9716 33.6913 22.6857C33.6913 29.3998 28.5132 34.7397 22.0011 34.7397C15.4897 34.7397 10.3095 29.4005 10.3095 22.6857C10.3095 15.9716 15.4897 10.6301 22.0011 10.6301V10.6294Z" fill="white"/>
</svg>