<svg width="73" height="62" viewBox="0 0 73 62" fill="none" xmlns="http://www.w3.org/2000/svg">
<path d="M45.625 23.25L36.5 0L27.375 23.25L0 31L27.375 38.75L36.5 62L45.625 38.75L73 31L45.625 23.25ZM12.1667 31L30.4167 25.8333L33.4583 31H12.1667ZM36.5 51.6667L30.4167 36.1667L36.5 33.5833V51.6667ZM36.5 10.3333L42.5833 25.8333L36.5 28.4167V10.3333ZM42.5833 36.1667L39.5417 31H60.8333L42.5833 36.1667ZM26.4625 44.6917L15.2083 49.0833L20.3792 39.525L25.2458 40.8167L26.4625 44.6917ZM52.6208 39.525L57.7917 49.0833L46.5375 44.6917L48.0583 40.5583L52.6208 39.525ZM20.3792 22.475L15.2083 12.9167L26.4625 17.3083L24.9417 21.1833L20.3792 22.475ZM46.5375 17.3083L57.7917 12.9167L52.6208 22.475L47.7542 21.1833L46.5375 17.3083Z" fill="#0878BE"/>
</svg>
