<svg width="176" height="159" viewBox="0 0 176 159" fill="none" xmlns="http://www.w3.org/2000/svg">
<path d="M110 59.5091L88 0L66 59.5091L0 79.3455L66 99.1819L88 158.691L110 99.1819L176 79.3455L110 59.5091ZM29.3333 79.3455L73.3333 66.1212L80.6667 79.3455H29.3333ZM88 132.242L73.3333 92.5697L88 85.9576V132.242ZM88 26.4485L102.667 66.1212L88 72.7334V26.4485ZM102.667 92.5697L95.3333 79.3455H146.667L102.667 92.5697ZM63.8 114.39L36.6667 125.63L49.1333 101.166L60.8667 104.472L63.8 114.39ZM126.867 101.166L139.333 125.63L112.2 114.39L115.867 103.81L126.867 101.166ZM49.1333 57.5255L36.6667 33.0606L63.8 44.3012L60.1333 54.2194L49.1333 57.5255ZM112.2 44.3012L139.333 33.0606L126.867 57.5255L115.133 54.2194L112.2 44.3012Z" fill="white"/>
</svg>
