<svg xmlns="http://www.w3.org/2000/svg" width="84" height="80" viewBox="0 0 84 80" fill="none">
  <path d="M1.77783 40.204C1.77783 22.2191 1.77783 13.2266 7.66027 7.63725C13.5507 2.05176 23.0173 2.05176 41.9584 2.05176C60.8995 2.05176 70.3701 2.05176 76.2525 7.63725C82.1389 13.2304 82.139 22.2191 82.139 40.204C82.139 58.189 82.1389 67.1815 76.2525 72.767C70.3741 78.3563 60.8995 78.3563 41.9584 78.3563C23.0173 78.3563 13.5467 78.3563 7.66027 72.767C1.77783 67.1853 1.77783 58.189 1.77783 40.204Z" stroke="#F8F8F8" stroke-width="3"/>
  <path d="M21.8682 47.8342L31.0816 39.0858C31.8351 38.3706 32.8569 37.9688 33.9223 37.9688C34.9878 37.9688 36.0096 38.3706 36.7631 39.0858L43.1357 45.1368C43.8892 45.852 44.9111 46.2538 45.9765 46.2538C47.0419 46.2538 48.0638 45.852 48.8173 45.1368L62.0487 32.5732M62.0487 32.5732V42.1113M62.0487 32.5732H52.0036" stroke="#F8F8F8" stroke-width="4" stroke-linecap="round" stroke-linejoin="round"/>
</svg>