<svg xmlns="http://www.w3.org/2000/svg" width="108" height="108" viewBox="0 0 108 108" fill="none">
  <path d="M99 85.5V22.5C99 21.3065 98.5259 20.1619 97.682 19.318C96.8381 18.4741 95.6935 18 94.5 18H13.5C12.3065 18 11.1619 18.4741 10.318 19.318C9.47411 20.1619 9 21.3065 9 22.5V85.5C9 86.6935 9.47411 87.8381 10.318 88.682C11.1619 89.5259 12.3065 90 13.5 90H94.5C95.6935 90 96.8381 89.5259 97.682 88.682C98.5259 87.8381 99 86.6935 99 85.5Z" stroke="white" stroke-width="4" stroke-linecap="round" stroke-linejoin="round"/>
  <path d="M56.25 18C56.25 18 45 40.5 47.25 56.25H60.75L63 90M76.5 90H49.5M67.5 18H40.5M76.5 36V40.5M31.5 36V40.5" stroke="white" stroke-width="4" stroke-linecap="round" stroke-linejoin="round"/>
  <path d="M29.25 65.25C29.25 65.25 38.6775 72 54 72C69.3225 72 78.75 65.25 78.75 65.25" stroke="white" stroke-width="4" stroke-linecap="round" stroke-linejoin="round"/>
</svg>